<?xml version="1.0" standalone="no"?>
<!DOCTYPE svg PUBLIC "-//W3C//DTD SVG 20010904//EN"
 "http://www.w3.org/TR/2001/REC-SVG-20010904/DTD/svg10.dtd">
<svg version="1.0" xmlns="http://www.w3.org/2000/svg"
 width="980.000000pt" height="902.000000pt" viewBox="0 0 980.000000 902.000000"
 preserveAspectRatio="xMidYMid meet">

<g transform="translate(0.000000,902.000000) scale(0.100000,-0.100000)"
fill="#FFFFFF" stroke="#000000">
<path d="M5875 9010 c-763 -87 -1408 -629 -1620 -1365 -46 -159 -66 -305 -73
-530 l-7 -210 -125 -12 c-263 -26 -615 -88 -848 -149 l-134 -35 -196 84 c-298
128 -490 187 -756 232 -263 44 -359 50 -801 50 -372 0 -426 -2 -477 -18 -97
-30 -157 -126 -146 -232 6 -53 34 -93 190 -277 209 -246 342 -437 436 -628 69
-138 87 -190 78 -223 -3 -14 -45 -72 -92 -129 -228 -273 -419 -623 -550 -1005
l-28 -81 -156 -6 c-261 -10 -427 -24 -452 -36 -12 -7 -44 -33 -70 -58 l-48
-46 0 -811 1 -810 71 -62 71 -63 406 0 406 0 64 -101 c124 -196 249 -361 445
-584 l96 -110 0 -820 0 -820 63 -71 62 -71 577 -7 c902 -12 1035 0 1087 102
26 51 54 156 96 357 19 94 45 212 56 264 l21 94 62 -6 c33 -4 111 -14 171 -23
82 -12 219 -17 537 -21 440 -5 665 3 828 32 47 8 102 15 122 15 45 0 37 23
107 -320 69 -338 79 -364 158 -454 l32 -36 713 -2 c763 -3 822 0 890 46 43 28
74 76 88 134 8 32 13 295 17 842 l5 795 82 85 c138 143 280 331 418 550 151
242 276 541 332 794 44 198 50 287 48 663 l-2 352 33 10 c17 5 70 17 117 26
108 21 293 69 367 96 32 12 120 51 197 87 l139 65 171 -24 c119 -16 218 -24
326 -24 141 0 159 2 196 22 85 46 131 127 121 214 -7 58 -26 96 -67 138 -40
40 -78 49 -269 66 -87 8 -170 17 -185 21 -27 6 -28 9 -22 53 30 211 25 344
-19 516 -96 367 -306 573 -605 592 -167 10 -303 -38 -411 -146 -114 -114 -169
-265 -169 -463 0 -140 21 -241 74 -353 49 -103 84 -152 204 -283 47 -51 83
-94 81 -96 -6 -6 -243 -53 -333 -66 -43 -7 -82 -8 -86 -3 -4 4 -29 58 -54 120
-103 254 -220 444 -459 746 l-109 138 33 38 c140 161 202 240 262 331 214 325
308 679 294 1110 -8 256 -42 419 -132 635 -109 265 -233 445 -442 646 -289
277 -633 448 -1033 514 -117 19 -367 27 -475 15z m455 -460 c529 -108 943
-464 1118 -960 58 -167 67 -225 67 -455 -1 -293 -23 -400 -134 -630 -97 -201
-252 -416 -319 -444 -41 -17 -65 -6 -285 143 -103 69 -192 126 -197 126 -20 0
-9 47 26 120 47 100 64 168 64 265 -1 264 -134 470 -363 563 -32 13 -104 32
-159 43 -171 33 -215 63 -225 153 -10 85 34 153 114 175 85 24 161 -28 189
-128 30 -111 45 -140 91 -181 73 -64 145 -76 228 -36 90 42 125 102 125 214 0
188 -111 387 -273 490 -80 51 -92 66 -106 131 -16 75 -37 115 -81 155 -79 71
-198 66 -283 -13 -38 -34 -55 -69 -67 -133 -14 -70 -27 -88 -109 -142 -129
-86 -219 -208 -256 -346 -19 -71 -19 -239 0 -310 28 -105 83 -199 164 -280 96
-97 165 -131 328 -165 141 -29 179 -44 212 -79 53 -56 31 -188 -38 -229 -36
-21 -64 -21 -124 -1 -71 24 -102 61 -132 158 -22 75 -31 89 -75 129 -95 86
-203 85 -289 -3 -25 -25 -53 -57 -62 -70 l-16 -24 -180 32 c-98 17 -269 43
-378 57 -269 34 -264 33 -271 62 -4 13 -4 115 -1 226 6 229 26 341 91 501 181
450 639 817 1111 890 55 9 111 18 125 20 57 10 271 -3 370 -24z m-4445 -1939
c183 -24 374 -62 488 -98 78 -24 79 -25 60 -45 -10 -11 -61 -45 -113 -76 -143
-83 -271 -166 -418 -270 -73 -52 -134 -93 -136 -91 -1 2 -27 49 -56 104 -29
55 -110 189 -180 297 -71 108 -125 200 -121 204 11 12 309 -4 476 -25z m2957
-177 c721 -79 1382 -344 1908 -763 137 -109 362 -338 462 -471 258 -342 411
-692 464 -1056 19 -133 22 -476 4 -619 -43 -362 -233 -780 -508 -1122 -471
-584 -1232 -1004 -2079 -1147 -268 -45 -467 -59 -778 -53 -357 6 -600 37 -898
112 -882 224 -1600 721 -2003 1388 -104 172 -215 424 -253 573 -40 159 -46
237 -46 584 0 316 1 340 23 425 90 353 253 677 485 965 107 133 330 351 467
456 585 451 1310 708 2115 748 132 7 504 -5 637 -20z m3803 -763 c52 -23 101
-79 136 -156 33 -70 55 -248 44 -352 -6 -56 -9 -63 -29 -63 -61 0 -210 134
-256 231 -73 155 -66 316 15 350 30 12 46 10 90 -10z m-7988 -1885 c15 -286
33 -438 74 -609 17 -71 28 -131 24 -135 -4 -4 -78 -8 -166 -10 l-159 -3 0 501
0 501 108 -3 107 -3 12 -239z m1473 -2409 c186 -121 519 -277 878 -412 61 -23
72 -30 72 -50 0 -30 -34 -209 -66 -346 -23 -99 -27 -107 -52 -113 -15 -4 -237
-9 -494 -13 l-468 -6 0 512 c0 407 3 511 13 505 6 -5 59 -39 117 -77z m4665
-49 c3 -68 5 -289 3 -492 l-3 -370 -30 -9 c-35 -12 -940 -16 -951 -5 -7 8 -94
429 -94 461 0 21 46 43 250 122 185 72 598 276 715 354 50 32 93 60 96 60 4 1
10 -54 14 -121z"/>
<path d="M2235 4924 c-121 -26 -194 -61 -296 -142 -160 -127 -230 -269 -185
-376 19 -46 84 -116 123 -133 18 -7 57 -13 86 -13 68 0 111 27 202 127 35 38
80 78 99 87 39 19 146 22 179 5 12 -6 58 -46 102 -89 109 -106 146 -130 205
-130 185 0 274 165 185 345 -42 87 -160 202 -255 248 -108 53 -213 77 -329 76
-53 -1 -105 -3 -116 -5z"/>
</g>
</svg>
